<?xml version="1.0" encoding="utf-8"?>
<svg width="11px" height="16px" viewBox="0 0 11 16" version="1.1" xmlns="http://www.w3.org/2000/svg">
<path fill="#535560" d="M10.3,8.4c-0.5-0.7-1.1-1-1.7-1V2.4c0.3,0,0.6-0.1,0.9-0.4s0.4-0.5,0.4-0.9S9.7,0.6,9.4,0.4S8.9,0,8.6,0H2.4
	C2.1,0,1.8,0.1,1.6,0.4S1.2,0.9,1.2,1.2s0.1,0.6,0.4,0.9s0.5,0.4,0.9,0.4v4.9c-0.6,0-1.2,0.3-1.7,0.9C0.2,8.9,0,9.6,0,10.4
	c0,0.2,0.1,0.3,0.2,0.4C0.3,10.9,0.4,11,0.6,11h3.9l0.7,4.6c0,0.2,0.1,0.3,0.3,0.3l0,0c0.1,0,0.1,0,0.2-0.1s0.1-0.1,0.1-0.2L6.3,11
	h4.1c0.2,0,0.3-0.1,0.4-0.2c0.1-0.1,0.2-0.3,0.2-0.4C11,9.6,10.7,8.9,10.3,8.4z"/>
</svg>
